<svg viewBox="0 0 32 32" xmlns="http://www.w3.org/2000/svg" aria-hidden="true"><path fill="#25D366" d="M19.11 17.41c-.27-.14-1.6-.79-1.85-.88-.25-.1-.43-.14-.62.14-.18.27-.71.88-.87 1.06-.16.18-.32.2-.6.07-.27-.14-1.13-.42-2.15-1.34-.79-.7-1.32-1.56-1.47-1.82-.15-.27-.02-.41.11-.55.12-.12.27-.32.4-.49.14-.16.18-.27.27-.45.09-.18.05-.34-.02-.48-.07-.14-.62-1.49-.84-2.03-.22-.53-.45-.46-.62-.46-.16 0-.34-.02-.52-.02-.18 0-.48.07-.73.34-.25.27-.96.94-.96 2.29 0 1.35.99 2.65 1.13 2.83.14.18 1.95 2.99 4.73 4.19.66.28 1.17.45 1.57.58.66.21 1.27.18 1.75.11.54-.08 1.6-.65 1.83-1.27.23-.62.23-1.15.16-1.27-.07-.11-.25-.18-.52-.32z"/><path fill="#128C7E" d="M26.57 5.43C24.02 2.88 20.62 1.5 17 1.5 9.82 1.5 4 7.32 4 14.5c0 2.3.6 4.54 1.75 6.52L4 30.5l9.69-1.68c1.9 1.04 4.08 1.59 6.31 1.59 7.18 0 13-5.82 13-13 0-3.62-1.38-7.02-3.93-9.57zM20 27.41c-2.01 0-3.99-.54-5.72-1.55l-.41-.24-5.75.99 1.05-5.61-.26-.43C7.86 18.77 7.39 16.66 7.39 14.5 7.39 8.54 12.04 3.89 18 3.89c3.21 0 6.22 1.25 8.48 3.51C28.74 9.66 30 12.67 30 15.88c0 5.96-4.65 10.61-10 10.61z"/></svg>